<?xml version="1.0" standalone="no"?>
<!DOCTYPE svg PUBLIC "-//W3C//DTD SVG 20010904//EN"
 "http://www.w3.org/TR/2001/REC-SVG-20010904/DTD/svg10.dtd">
<svg version="1.0" xmlns="http://www.w3.org/2000/svg"
 width="1427.000000pt" height="626.000000pt" viewBox="0 0 1427.000000 626.000000"
 preserveAspectRatio="xMidYMid meet">

<g transform="translate(0.000000,626.000000) scale(0.100000,-0.100000)"
fill="#000000" stroke="none">
<path d="M0 3130 l0 -3130 7135 0 7135 0 0 3130 0 3130 -7135 0 -7135 0 0
-3130z m2789 645 c235 -56 403 -261 440 -538 42 -308 -24 -574 -181 -729 -116
-114 -232 -161 -403 -161 -178 0 -299 48 -415 163 -98 98 -153 211 -180 372
-19 114 -8 359 20 463 58 214 205 369 405 426 76 22 228 24 314 4z m5270 -1
c204 -51 336 -191 353 -374 l3 -35 -142 -3 -143 -3 0 25 c0 67 -62 144 -131
165 -54 16 -164 16 -218 0 -81 -24 -136 -123 -107 -192 28 -67 84 -102 267
-165 315 -109 431 -205 469 -386 33 -158 -48 -323 -194 -398 -126 -64 -349
-82 -499 -40 -145 41 -243 103 -309 196 -38 54 -68 143 -68 203 l0 33 139 0
139 0 6 -42 c15 -98 73 -154 186 -178 175 -37 320 33 320 153 0 105 -51 146
-275 224 -353 122 -485 251 -473 462 11 174 128 298 332 351 92 24 255 26 345
4z m1860 -4 c131 -32 222 -96 298 -210 37 -56 70 -143 79 -209 l7 -52 -144 3
-144 3 -7 53 c-18 123 -88 184 -228 199 -170 17 -279 -72 -321 -262 -16 -75
-17 -377 -1 -459 25 -127 85 -212 171 -241 86 -29 234 -16 293 27 39 27 78 99
86 155 l7 48 143 3 142 3 0 -30 c0 -54 -46 -177 -89 -239 -86 -121 -212 -192
-381 -213 -316 -38 -558 118 -639 411 -33 118 -46 288 -32 429 19 207 72 335
182 443 74 73 156 120 247 142 87 21 232 19 331 -4z m1306 1 c156 -42 278
-143 354 -291 65 -128 76 -186 76 -415 0 -179 -3 -208 -23 -280 -30 -104 -75
-186 -140 -256 -69 -75 -141 -122 -238 -155 -68 -23 -95 -27 -194 -27 -97 0
-126 4 -186 26 -234 82 -375 275 -405 553 -13 121 -6 281 16 388 47 222 220
411 423 460 85 21 233 19 317 -3z m-9335 -84 l0 -83 -113 -165 c-62 -90 -142
-207 -178 -259 -266 -384 -399 -580 -399 -585 0 -3 160 -5 355 -5 l355 0 0
-115 0 -115 -535 0 -535 0 0 85 c0 84 0 86 44 148 24 34 71 103 105 152 68 97
170 245 254 365 29 41 83 120 121 175 38 55 91 130 118 167 26 37 48 72 48 78
0 7 -118 10 -345 10 l-345 0 0 115 0 115 525 0 525 0 0 -83z m1840 -417 c0
-472 1 -503 20 -551 27 -72 62 -105 138 -130 165 -55 314 19 342 170 6 31 10
253 10 533 l0 479 143 -3 142 -3 0 -505 c0 -561 -2 -578 -68 -689 -159 -267
-670 -307 -894 -70 -35 38 -85 133 -102 194 -8 31 -17 839 -11 1068 0 4 63 7
140 7 l140 0 0 -500z m1693 471 c82 -28 197 -102 254 -163 129 -142 181 -312
170 -561 -11 -265 -93 -423 -285 -553 -121 -81 -237 -103 -554 -104 l-238 0 0
706 0 706 293 -4 c271 -4 297 -6 360 -27z m1307 19 c0 -9 193 -534 225 -610 8
-19 65 -170 126 -335 62 -165 125 -334 140 -375 16 -41 29 -76 29 -78 0 -1
-68 -1 -152 0 l-152 3 -45 135 c-25 74 -49 140 -53 145 -4 6 -97 8 -264 5
l-258 -5 -46 -140 -46 -140 -153 -3 c-144 -2 -153 -1 -146 15 4 10 79 209 166
443 88 234 199 529 246 655 47 127 92 245 100 263 l13 32 135 0 c82 0 135 -4
135 -10z m5535 -7 c10 -27 153 -429 175 -493 10 -30 42 -120 70 -200 29 -80
64 -180 79 -222 15 -42 29 -80 32 -83 7 -6 149 381 254 690 8 22 36 103 63
180 l50 140 191 3 191 2 0 -705 0 -705 -145 0 -145 0 0 196 c0 108 4 282 9
387 19 378 21 461 12 452 -9 -10 -354 -959 -366 -1008 l-7 -28 -100 3 -100 3
-73 200 c-41 110 -112 308 -160 440 -114 318 -137 378 -147 390 -10 12 -10 17
7 -340 8 -165 15 -389 15 -497 l0 -198 -145 0 -145 0 0 705 0 705 189 0 c171
0 190 -2 196 -17z m-3408 -1133 c46 -28 67 -65 67 -119 0 -61 -28 -106 -79
-131 -53 -25 -95 -25 -146 0 -50 26 -79 72 -79 128 0 89 56 142 150 142 37 0
65 -6 87 -20z m-373 -904 c49 -20 66 -51 66 -116 -1 -132 -106 -232 -210 -201
-151 45 -73 323 93 330 10 1 33 -5 51 -13z m1868 4 c39 -11 61 -46 37 -61 -16
-10 -29 -3 -29 16 0 17 -31 35 -59 35 -30 0 -51 -27 -51 -66 0 -30 6 -38 49
-66 76 -50 92 -105 44 -150 -36 -33 -81 -42 -131 -27 -49 14 -72 53 -48 78 15
14 16 14 16 -1 0 -8 9 -27 21 -42 39 -49 129 -24 129 37 0 28 -6 35 -55 72
-55 40 -64 54 -65 96 0 40 29 74 70 82 14 2 27 5 30 6 3 0 22 -4 42 -9z
m-1582 -125 c30 -68 56 -122 59 -119 10 9 49 208 44 221 -3 6 -12 14 -21 16
-10 3 10 5 43 5 49 0 55 -1 34 -9 -22 -8 -28 -21 -47 -112 -13 -56 -28 -123
-33 -149 -6 -27 -16 -48 -23 -48 -11 0 -64 108 -110 223 -8 20 -19 37 -23 37
-5 0 -18 -53 -31 -117 -21 -111 -21 -119 -5 -130 14 -11 8 -13 -38 -12 -41 0
-49 2 -33 9 12 5 24 12 27 17 3 4 17 66 32 137 26 124 26 130 9 143 -16 12
-13 13 22 13 l41 0 53 -125z m322 113 c-12 -6 -25 -21 -27 -32 -16 -70 -47
-224 -49 -241 -1 -13 5 -20 17 -19 9 0 37 1 63 2 42 2 46 4 61 40 18 43 28 30
15 -20 l-8 -33 -120 -2 c-90 -2 -114 1 -97 9 24 11 25 15 58 171 l23 107 -21
15 c-20 14 -17 15 43 14 55 0 61 -2 42 -11z m288 -1 c-21 -11 -28 -29 -54
-146 -28 -130 -29 -134 -11 -147 17 -12 11 -14 -46 -13 -49 0 -59 2 -41 9 28
12 34 28 62 169 22 110 22 115 4 128 -15 11 -9 13 47 13 58 0 62 -2 39 -13z
m175 -47 c12 -30 37 -86 55 -125 l33 -70 23 105 c29 130 29 129 2 140 -17 6
-6 9 42 8 36 0 55 -3 43 -5 -39 -8 -40 -9 -87 -248 -19 -93 -33 -84 -97 62
-31 71 -60 128 -65 128 -6 0 -50 -186 -54 -226 0 -3 10 -11 23 -17 18 -9 12
-11 -38 -11 -44 0 -54 3 -38 9 31 12 37 29 63 164 23 117 23 119 4 133 -17 13
-15 14 24 11 43 -3 44 -4 67 -58z m471 38 c-3 -13 -6 -29 -6 -35 0 -7 -4 -13
-10 -13 -5 0 -10 11 -10 25 0 17 -6 25 -17 26 -10 1 -35 2 -56 3 -44 3 -55
-12 -59 -86 l-3 -42 48 3 c28 1 47 -2 47 -8 0 -7 -22 -11 -53 -11 l-54 0 -15
-70 c-8 -41 -11 -73 -6 -76 14 -9 110 5 125 18 7 6 13 17 13 24 0 8 5 14 10
14 11 0 12 -15 4 -47 -6 -22 -10 -23 -128 -22 -77 0 -113 3 -100 9 26 10 29
17 59 156 25 118 25 140 -3 147 -10 3 36 5 102 6 118 1 118 1 112 -21z m536
12 c-27 -12 -37 -34 -57 -134 -26 -136 -17 -162 57 -160 60 2 77 26 104 146
29 128 29 136 2 148 -18 7 -9 9 37 9 57 0 59 -1 34 -14 -22 -12 -28 -27 -48
-123 -13 -61 -31 -124 -41 -140 -26 -42 -85 -59 -143 -40 -60 19 -66 42 -39
176 12 59 22 111 22 115 0 4 -10 12 -22 17 -17 6 -5 9 47 9 52 0 64 -3 47 -9z
m422 -6 c28 -28 38 -55 32 -88 -10 -51 -46 -78 -113 -85 l-57 -6 -13 -43 c-14
-51 -9 -69 20 -75 12 -2 -12 -5 -53 -5 -61 0 -70 1 -47 10 15 5 29 19 31 31 3
12 16 72 29 132 25 110 25 110 5 128 -19 16 -17 17 65 17 65 0 89 -4 101 -16z
m322 -6 c-3 -13 -6 -29 -6 -35 0 -7 -4 -13 -10 -13 -5 0 -10 11 -10 25 0 14
-6 25 -12 26 -7 0 -33 2 -57 2 l-44 2 -14 -59 c-7 -33 -11 -62 -8 -65 3 -3 25
-4 49 -2 24 1 47 -2 51 -8 4 -7 -13 -11 -53 -11 l-58 0 -13 -64 c-7 -36 -10
-70 -6 -75 3 -6 27 -11 52 -11 37 0 50 5 73 30 36 39 41 38 27 -5 l-10 -35
-121 0 c-103 0 -117 2 -97 13 27 13 37 42 67 196 17 81 17 84 -1 97 -16 12 -3
14 94 14 113 0 113 0 107 -22z m268 -3 c34 -45 13 -105 -49 -140 -17 -11 -17
-13 4 -70 12 -33 29 -66 38 -72 15 -11 14 -13 -9 -13 -35 0 -55 22 -68 73 -17
66 -18 67 -48 67 -28 0 -30 -3 -36 -50 -4 -27 -7 -53 -8 -57 0 -5 10 -14 23
-20 21 -11 16 -13 -46 -13 -57 1 -66 3 -50 12 11 6 22 12 23 14 7 5 52 229 52
256 0 17 -6 28 -17 32 -10 2 26 4 79 3 84 -2 99 -5 112 -22z m210 -22 c20
-156 29 -204 38 -201 5 2 39 57 76 123 l68 120 54 2 c47 2 51 1 28 -8 -23 -9
-29 -20 -47 -100 -12 -50 -24 -115 -27 -144 -6 -46 -4 -54 12 -58 11 -3 -7 -5
-38 -6 -56 -1 -57 0 -40 17 12 12 26 54 37 113 10 52 22 104 26 116 14 38 -6
34 -26 -5 -11 -20 -36 -64 -55 -97 -19 -33 -44 -77 -55 -99 -18 -34 -40 -55
-49 -45 -2 2 -11 60 -21 129 -17 131 -22 156 -30 148 -4 -4 -55 -241 -55 -255
0 -2 10 -8 23 -13 17 -7 8 -9 -38 -9 -54 -1 -58 1 -36 12 26 13 28 19 67 196
17 81 17 84 -1 97 -17 13 -14 14 32 14 l50 0 7 -47z m489 15 c3 -18 14 -85 24
-148 11 -74 23 -119 33 -127 12 -10 4 -12 -45 -12 -46 0 -55 2 -37 9 23 10 28
33 16 78 -6 20 -12 22 -68 22 -58 0 -62 -2 -78 -31 -10 -17 -18 -37 -18 -44 0
-8 8 -19 18 -24 13 -8 4 -10 -38 -11 -51 0 -53 1 -33 15 11 8 50 65 86 127 35
62 73 128 83 145 25 43 50 43 57 1z m360 10 c10 -10 17 -32 17 -57 0 -39 -11
-53 -64 -86 -16 -9 -15 -15 4 -70 11 -33 28 -66 37 -72 15 -12 14 -13 -8 -13
-38 0 -49 13 -68 76 -17 54 -21 59 -47 59 -31 0 -41 -20 -43 -87 -1 -30 3 -37
22 -41 12 -2 -9 -5 -48 -5 -47 0 -63 2 -49 8 13 5 25 24 32 52 11 38 52 227
52 235 0 2 -10 8 -22 13 -17 7 4 9 73 7 74 -1 99 -6 112 -19z m208 9 c-19 -9
-28 -26 -38 -72 -7 -33 -12 -65 -11 -72 2 -7 35 17 76 53 55 50 71 71 67 85
-6 17 -1 19 42 19 l48 0 -30 -18 c-16 -11 -54 -41 -83 -69 l-52 -50 35 -78
c20 -43 44 -84 53 -92 15 -11 13 -12 -14 -13 -38 0 -46 9 -74 80 -12 30 -25
59 -30 63 -15 16 -49 -13 -60 -51 -15 -55 -12 -72 13 -82 16 -6 4 -9 -48 -9
-62 -1 -67 1 -45 12 21 10 28 29 52 132 34 146 34 153 6 165 -17 6 -5 9 47 9
62 1 67 -1 46 -12z m465 -3 c-3 -9 -6 -24 -6 -35 0 -26 -18 -24 -22 3 -2 15
-13 25 -36 32 -18 5 -35 6 -38 3 -7 -7 -64 -253 -64 -275 0 -7 10 -17 23 -22
16 -6 4 -9 -48 -9 -52 0 -64 3 -47 9 12 5 26 20 32 32 9 24 39 165 47 229 l5
36 -39 -6 c-26 -4 -41 -13 -48 -29 -18 -41 -32 -23 -19 26 6 21 10 22 136 22
115 0 129 -2 124 -16z"/>
<path d="M2560 3547 c-101 -29 -165 -95 -203 -211 -16 -49 -21 -97 -25 -237
-4 -155 -2 -186 17 -259 25 -98 62 -163 120 -207 55 -42 110 -56 198 -51 94 6
153 40 205 119 56 83 70 148 75 338 4 131 2 178 -12 235 -32 136 -89 221 -172
258 -55 24 -147 31 -203 15z"/>
<path d="M10977 3546 c-62 -17 -114 -59 -155 -127 -57 -94 -78 -217 -69 -409
9 -181 41 -280 116 -356 59 -59 85 -68 191 -69 79 0 102 4 136 22 86 46 143
141 164 275 17 105 8 374 -15 448 -37 121 -112 197 -213 219 -66 14 -94 13
-155 -3z"/>
<path d="M5060 3065 l0 -478 124 5 c134 6 182 21 244 73 83 70 122 173 129
345 13 284 -45 435 -192 502 -42 19 -72 23 -177 26 l-128 4 0 -477z"/>
<path d="M6497 3153 c-47 -141 -84 -260 -81 -265 7 -11 341 -11 348 0 7 11
-164 522 -174 522 -4 0 -46 -116 -93 -257z"/>
<path d="M8394 1700 c-74 -30 -123 -216 -70 -268 23 -23 89 -21 117 3 34 31
69 119 69 176 0 78 -49 116 -116 89z"/>
<path d="M10877 1694 c-15 -56 -29 -145 -24 -150 11 -12 78 7 98 27 13 13 19
33 19 63 0 48 -12 63 -57 72 -25 5 -32 2 -36 -12z"/>
<path d="M11456 1702 c-10 -17 -34 -131 -28 -136 15 -16 75 -4 97 19 28 27 34
85 12 104 -20 16 -73 25 -81 13z"/>
<path d="M12188 1604 c-21 -37 -35 -70 -32 -75 8 -14 91 -11 96 4 6 17 -12
137 -20 137 -4 0 -24 -30 -44 -66z"/>
<path d="M12511 1692 c-6 -11 -14 -45 -17 -76 l-7 -56 41 0 c49 0 82 34 82 85
0 37 -14 52 -58 61 -24 5 -32 2 -41 -14z"/>
</g>
</svg>
